<?xml version="1.0" standalone="no"?>
<!DOCTYPE svg PUBLIC "-//W3C//DTD SVG 20010904//EN"
 "http://www.w3.org/TR/2001/REC-SVG-20010904/DTD/svg10.dtd">
<svg version="1.0" xmlns="http://www.w3.org/2000/svg"
 width="700.000000pt" height="700.000000pt" viewBox="0 0 700.000000 700.000000"
 preserveAspectRatio="xMidYMid meet">
<metadata>
Created by potrace 1.11, written by Peter Selinger 2001-2013
</metadata>
<g transform="translate(0.000000,700.000000) scale(0.100000,-0.100000)"
fill="#000000" stroke="none">
<path d="M3288 6956 c-1 -2 -46 -7 -98 -10 -52 -4 -102 -9 -110 -11 -8 -2 -42
-6 -75 -10 -79 -8 -246 -41 -315 -61 -451 -133 -602 -199 -960 -422 -409 -255
-820 -690 -1057 -1117 -97 -174 -240 -492 -258 -575 -2 -8 -22 -73 -43 -145
-22 -71 -49 -177 -60 -235 -19 -97 -25 -132 -37 -230 -3 -19 -8 -62 -12 -95
-10 -76 -9 -595 1 -695 15 -151 104 -546 159 -705 108 -314 344 -742 518 -940
14 -16 69 -79 120 -140 107 -125 150 -169 269 -277 124 -112 363 -289 475
-352 17 -9 53 -30 80 -47 54 -32 253 -133 325 -163 151 -65 477 -169 593 -190
15 -3 35 -7 45 -10 20 -6 201 -32 287 -42 33 -3 74 -8 90 -10 34 -5 353 -4
465 1 98 4 168 11 260 25 41 7 91 14 110 17 67 9 346 82 445 116 97 33 208 77
290 113 22 10 42 18 45 19 3 0 48 22 100 49 52 27 109 56 125 64 17 8 67 39
112 69 44 29 87 51 95 47 7 -3 52 -58 99 -122 146 -196 619 -826 640 -849 l19
-23 450 0 c247 0 450 2 450 5 0 6 -41 66 -51 75 -3 3 -142 187 -309 410 -168
223 -307 407 -310 410 -7 6 -414 551 -423 566 -4 6 3 22 16 36 184 201 384
488 505 723 112 218 218 502 266 715 2 8 9 33 14 55 14 52 41 212 48 278 3 29
7 58 9 64 7 22 19 214 19 308 -1 135 -13 450 -18 466 -3 8 -7 32 -10 54 -11
87 -19 127 -62 305 -49 203 -88 330 -141 460 -43 106 -204 424 -243 482 -17
24 -30 49 -30 56 0 6 -4 12 -10 12 -5 0 -10 5 -10 11 0 29 -315 416 -435 534
-41 40 -139 129 -219 200 -49 43 -227 169 -353 250 -264 168 -616 316 -948
398 -96 24 -122 29 -209 43 -21 3 -46 7 -55 9 -9 1 -47 6 -86 10 -38 4 -79 10
-90 13 -22 5 -501 13 -507 8z m422 -600 c97 -8 177 -19 240 -31 593 -119 1046
-367 1456 -796 398 -419 668 -1033 711 -1619 10 -148 5 -398 -11 -485 -2 -11
-7 -47 -11 -80 -21 -183 -120 -523 -210 -725 -87 -198 -211 -399 -349 -570
-60 -74 -258 -278 -326 -335 -91 -77 -182 -147 -186 -142 -3 2 11 57 30 120
33 107 98 349 110 407 37 179 55 274 61 320 3 30 8 62 11 71 3 10 6 30 9 45 2
16 6 43 8 59 3 17 9 64 13 105 3 41 8 89 9 105 13 124 16 209 17 415 1 246 -1
267 -32 420 -53 261 -142 478 -283 690 -59 89 -71 105 -164 211 -96 110 -162
134 -235 84 -75 -51 -74 -141 1 -223 149 -163 191 -224 290 -427 79 -163 125
-306 137 -430 3 -27 9 -77 13 -110 11 -74 11 -417 1 -505 -4 -36 -11 -96 -15
-135 -8 -88 -11 -114 -31 -250 -24 -169 -22 -158 -48 -290 -32 -156 -131 -512
-186 -665 -40 -112 -46 -157 -26 -202 6 -14 -11 -26 -97 -68 -107 -51 -187
-83 -194 -77 -2 2 18 53 43 113 50 119 96 238 124 324 59 178 161 546 176 640
3 14 9 49 14 79 22 120 11 171 -44 209 -57 39 -155 20 -185 -37 -6 -11 -26
-96 -46 -190 -40 -200 -42 -209 -102 -406 -75 -251 -143 -437 -218 -600 -109
-236 -114 -244 -137 -250 -113 -25 -188 -38 -188 -32 0 3 31 67 69 143 74 149
84 170 156 339 84 196 201 571 239 765 2 14 11 57 20 95 14 67 38 222 51 330
3 28 8 69 11 91 12 86 11 171 -3 205 -40 98 -186 103 -234 8 -10 -19 -20 -65
-24 -104 -3 -38 -7 -86 -10 -105 -2 -19 -7 -57 -10 -85 -3 -27 -7 -61 -10 -75
-2 -14 -7 -45 -9 -70 -3 -25 -10 -70 -16 -100 -6 -30 -13 -68 -16 -85 -3 -16
-22 -100 -44 -185 -58 -235 -131 -450 -211 -627 -10 -23 -19 -44 -19 -46 0
-30 -250 -502 -274 -519 -12 -9 -196 -11 -196 -3 0 3 17 31 37 63 67 104 80
126 149 242 90 152 114 201 114 227 0 86 -90 151 -173 124 -48 -16 -71 -45
-182 -231 -167 -281 -243 -392 -263 -386 -9 3 -28 7 -42 10 -14 2 -44 9 -67
14 -23 5 -45 7 -49 3 -13 -12 16 37 66 113 293 443 466 855 565 1348 27 137
31 158 40 263 4 39 9 81 11 95 2 14 7 102 10 196 8 195 2 214 -66 253 -46 26
-63 26 -117 2 -61 -28 -70 -54 -77 -216 -9 -206 -14 -255 -42 -415 -14 -80
-27 -158 -30 -175 -15 -82 -60 -240 -120 -415 -100 -295 -236 -563 -420 -827
-101 -144 -89 -137 -176 -101 -40 17 -75 32 -77 34 -2 1 31 49 72 106 110 152
125 187 106 245 -13 41 -60 80 -104 89 -65 12 -109 -22 -208 -159 -48 -67 -94
-130 -102 -140 -12 -17 -17 -15 -85 28 l-72 46 25 32 c254 337 376 557 482
872 22 66 93 337 100 385 4 25 9 54 11 65 2 11 7 44 10 74 3 30 7 63 9 73 2
10 7 78 10 151 10 218 14 259 35 332 49 173 164 326 315 420 146 91 332 135
475 113 87 -13 110 -18 175 -42 174 -63 314 -191 412 -375 47 -90 77 -115 137
-115 74 0 126 50 132 125 2 30 -7 59 -38 120 -143 287 -407 483 -733 544 -68
13 -272 13 -340 0 -364 -71 -660 -325 -775 -665 -34 -100 -47 -180 -55 -345
-10 -194 -21 -304 -41 -415 -9 -47 -18 -96 -20 -110 -32 -175 -147 -474 -258
-670 -98 -174 -272 -414 -291 -402 -32 19 -124 107 -117 112 21 15 198 263
227 319 60 118 -56 236 -175 177 -26 -12 -56 -48 -113 -134 -43 -64 -90 -130
-104 -147 l-26 -29 -21 25 c-11 14 -37 44 -56 68 -19 24 -41 50 -48 57 -11 11
-7 16 27 30 32 12 50 32 94 97 99 152 167 290 221 452 35 107 74 293 69 335
-12 112 -148 155 -226 72 -22 -24 -41 -83 -63 -201 -28 -145 -168 -455 -247
-546 l-22 -26 -62 118 c-141 271 -259 611 -289 834 -3 30 -8 65 -10 79 -16
110 -19 161 -19 355 1 268 23 435 90 685 100 368 273 716 495 995 66 82 241
262 320 328 325 272 730 477 1134 572 105 25 127 29 211 41 28 3 59 8 70 10
11 2 58 7 105 10 47 3 86 7 87 8 5 5 282 -2 353 -8z"/>
<path d="M3388 5165 c-2 -1 -41 -5 -88 -9 -176 -13 -337 -45 -493 -98 -507
-169 -933 -579 -1136 -1091 -17 -43 -33 -86 -35 -95 -1 -9 -6 -24 -9 -32 -10
-25 -47 -179 -53 -219 -18 -127 131 -201 222 -110 20 20 35 48 39 69 3 19 17
78 31 130 102 378 333 694 680 928 67 46 256 142 278 142 8 0 17 4 20 9 6 9
206 67 261 75 221 34 328 38 491 19 189 -21 348 -66 514 -146 58 -27 121 -51
141 -53 47 -3 89 18 118 61 32 47 26 114 -14 155 -58 60 -355 184 -515 214
-134 25 -172 31 -290 42 -94 8 -159 12 -162 9z"/>
<path d="M3362 4708 c-50 -24 -72 -60 -72 -117 0 -97 35 -119 215 -136 181
-17 304 -52 459 -131 200 -102 399 -302 501 -504 93 -184 128 -350 127 -590
-2 -198 7 -228 73 -260 48 -23 95 -20 135 9 50 36 55 60 54 276 0 110 -3 216
-6 235 -51 297 -183 571 -373 772 -77 81 -184 174 -260 225 -106 71 -306 161
-420 189 -25 6 -127 25 -152 28 -15 2 -48 7 -73 10 -114 16 -164 14 -208 -6z"/>
<path d="M2905 4625 c-282 -105 -514 -289 -684 -543 -109 -162 -198 -395 -226
-587 -3 -22 -8 -85 -10 -140 -3 -55 -7 -122 -10 -150 -3 -27 -7 -77 -10 -110
-6 -68 -14 -128 -20 -165 -3 -14 -7 -41 -10 -60 -8 -46 -32 -143 -51 -200 -35
-111 -21 -175 48 -212 55 -30 117 -19 160 29 31 34 96 264 113 398 4 28 8 57
10 65 2 8 7 42 10 75 4 33 9 71 11 85 3 14 7 90 10 170 5 163 23 266 66 390
63 176 143 305 273 436 123 124 241 204 387 263 34 14 71 38 89 59 28 32 31
40 27 87 -6 74 -32 104 -108 128 -9 2 -42 -5 -75 -18z"/>
<path d="M3370 3848 c-139 -14 -252 -66 -346 -158 -99 -97 -159 -224 -170
-357 -6 -81 12 -125 65 -160 40 -27 78 -29 125 -6 40 18 61 56 71 123 16 112
50 177 125 236 116 92 297 76 398 -34 70 -76 77 -100 76 -267 0 -132 -5 -225
-18 -370 -5 -50 -23 -182 -32 -230 -2 -11 -8 -45 -14 -75 -6 -30 -12 -65 -15
-78 -2 -13 -23 -91 -46 -175 -23 -84 -43 -166 -46 -184 -8 -59 46 -126 113
-139 65 -12 124 33 152 116 21 65 96 376 117 490 3 14 7 36 10 50 2 14 7 39 9
55 2 17 7 48 11 70 28 182 39 557 19 654 -37 179 -188 349 -365 410 -76 27
-163 38 -239 29z"/>
<path d="M2884 2890 c-30 -12 -62 -56 -73 -99 -6 -28 -50 -212 -56 -241 -30
-129 -127 -389 -209 -560 -20 -42 -36 -90 -36 -110 0 -110 141 -170 221 -94
33 32 60 87 144 294 80 198 108 281 151 455 45 179 52 251 30 294 -31 58 -109
87 -172 61z"/>
</g>
</svg>
