<?xml version="1.0" standalone="no"?>
<!DOCTYPE svg PUBLIC "-//W3C//DTD SVG 20010904//EN"
 "http://www.w3.org/TR/2001/REC-SVG-20010904/DTD/svg10.dtd">
<svg version="1.0" xmlns="http://www.w3.org/2000/svg"
 width="935.000000pt" height="341.000000pt" viewBox="0 0 935.000000 341.000000"
 preserveAspectRatio="xMidYMid meet">

<g transform="translate(0.000000,341.000000) scale(0.100000,-0.100000)"
fill="#000000" stroke="none">
<path d="M1088 3125 c-481 -91 -819 -517 -795 -1000 22 -433 306 -780 735
-897 110 -30 354 -31 462 -1 41 12 82 24 91 28 12 5 73 -94 288 -467 150 -260
285 -485 302 -500 34 -32 66 -35 115 -12 36 17 64 58 64 94 0 28 4 21 -292
533 -142 246 -258 451 -257 455 0 4 34 33 74 65 231 181 367 488 352 792 -22
433 -311 785 -735 896 -102 27 -299 34 -404 14z m314 -179 c156 -30 285 -96
400 -204 278 -263 327 -690 115 -1008 -51 -78 -104 -133 -94 -99 35 118 49
444 23 542 -20 76 -57 150 -110 219 -52 69 -78 82 -107 53 -23 -23 -19 -34 35
-98 43 -52 89 -147 106 -220 25 -108 -5 -421 -55 -572 -12 -36 -25 -53 -52
-69 l-36 -21 8 23 c30 98 65 248 63 272 -2 16 -11 34 -21 40 -33 21 -49 -5
-78 -125 -16 -62 -41 -146 -56 -185 -24 -63 -31 -73 -60 -82 -18 -6 -33 -7
-33 -3 0 3 13 38 29 77 62 147 118 436 91 468 -17 21 -57 20 -68 -1 -5 -10
-12 -52 -15 -93 -8 -101 -49 -253 -100 -375 -40 -95 -44 -100 -75 -103 -38 -4
-38 -2 -12 40 24 39 26 71 5 88 -24 20 -51 1 -87 -60 -28 -47 -38 -55 -67 -58
-18 -2 -31 0 -29 5 2 4 21 42 42 83 77 149 120 298 132 464 8 94 0 116 -42
116 -32 0 -44 -27 -44 -98 0 -77 -25 -205 -57 -295 -33 -94 -113 -247 -129
-247 -33 0 -42 12 -37 45 4 27 1 35 -16 44 -24 13 -55 2 -65 -24 -7 -19 -15
-19 -40 0 -19 14 -18 15 6 53 80 120 124 257 142 439 12 121 16 139 42 176 48
68 103 100 180 105 107 7 169 -29 247 -142 21 -30 53 -32 70 -4 15 23 -15 86
-67 139 -119 122 -317 128 -444 14 -76 -69 -102 -130 -113 -267 -9 -121 -26
-197 -63 -289 -25 -62 -83 -159 -95 -159 -5 0 -15 8 -24 18 -14 16 -14 19 3
42 22 29 25 61 8 78 -19 19 -45 14 -67 -14 -17 -22 -23 -24 -36 -14 -21 18
-19 33 15 100 17 33 36 87 44 120 13 55 13 62 -3 81 -26 33 -58 18 -71 -34
-24 -96 -52 -153 -68 -143 -17 11 -73 164 -88 244 -70 367 142 746 492 878
139 53 287 66 426 40z"/>
<path d="M1102 2610 c-171 -46 -315 -165 -391 -321 -48 -100 -62 -177 -37
-198 28 -23 63 0 71 48 11 64 68 172 124 233 87 95 187 148 319 168 96 15 181
1 310 -51 59 -25 100 32 47 67 -102 67 -305 92 -443 54z"/>
<path d="M1226 2474 c-19 -19 -20 -25 -2 -49 9 -13 33 -21 79 -26 130 -16 239
-95 298 -215 23 -47 31 -79 35 -140 8 -122 9 -126 47 -122 l32 3 0 111 c0 107
-1 112 -37 186 -66 132 -188 228 -326 257 -73 15 -108 14 -126 -5z"/>
<path d="M1030 2429 c-68 -37 -122 -88 -164 -154 -51 -79 -67 -131 -76 -250
-5 -60 -16 -141 -26 -178 -15 -62 -15 -70 -1 -84 10 -10 24 -13 41 -9 35 9 51
70 74 296 6 52 18 104 32 134 32 66 103 139 175 179 61 33 76 56 55 82 -19 22
-49 18 -110 -16z"/>
<path d="M1197 2195 c-66 -23 -108 -74 -122 -146 -7 -38 11 -69 40 -69 22 0
45 29 45 56 0 15 12 38 29 55 40 40 89 40 133 0 l33 -30 -3 -93 c-1 -51 -12
-138 -24 -193 -27 -126 -28 -155 -5 -169 24 -15 49 2 64 46 41 122 65 365 44
430 -15 46 -78 103 -128 117 -48 14 -59 13 -106 -4z"/>
<path d="M1078 1888 c-8 -7 -23 -44 -32 -83 -10 -38 -34 -110 -53 -159 l-36
-89 22 -18 c18 -15 27 -16 42 -8 24 12 62 97 95 208 29 102 31 137 5 151 -24
13 -24 13 -43 -2z"/>
<path d="M8082 2333 l3 -618 163 -3 162 -2 0 56 0 57 46 -43 c73 -67 122 -85
234 -85 85 0 102 3 160 31 156 74 250 242 250 449 0 199 -95 366 -250 439 -59
28 -74 31 -160 31 -84 -1 -101 -4 -148 -28 -29 -15 -71 -46 -92 -67 l-40 -40
0 220 0 220 -165 0 -165 0 2 -617z m576 32 c78 -33 122 -102 122 -195 0 -212
-261 -288 -351 -103 -85 174 63 367 229 298z"/>
<path d="M2390 2311 l0 -601 268 0 c147 0 295 5 329 10 328 53 533 282 533
595 0 282 -171 498 -450 571 -52 13 -127 18 -372 21 l-308 5 0 -601z m609 280
c115 -44 181 -147 181 -281 0 -99 -28 -167 -92 -224 -62 -57 -118 -75 -260
-83 l-108 -6 0 313 0 313 113 -5 c80 -4 128 -12 166 -27z"/>
<path d="M3700 2310 l0 -600 165 0 165 0 0 210 0 210 283 2 282 3 3 138 3 137
-286 0 -285 0 0 105 0 105 315 0 315 0 0 145 0 145 -480 0 -480 0 0 -600z"/>
<path d="M4810 2311 l0 -601 165 0 165 0 0 180 0 180 74 0 73 0 119 -180 119
-180 193 0 192 0 -53 78 c-141 201 -220 317 -223 327 -2 5 19 24 47 40 144 85
215 257 179 437 -28 146 -114 238 -273 291 -57 19 -90 21 -419 25 l-358 4 0
-601z m667 283 c97 -71 71 -221 -45 -254 -20 -5 -94 -10 -164 -10 l-128 0 0
146 0 145 154 -3 c137 -3 158 -5 183 -24z"/>
<path d="M6040 2310 l0 -600 455 0 455 0 0 145 0 145 -290 0 -290 0 0 455 0
455 -165 0 -165 0 0 -600z"/>
<path d="M7293 2635 c-76 -14 -172 -42 -187 -55 -4 -5 7 -58 25 -119 26 -91
35 -111 48 -105 54 22 165 44 228 44 118 0 179 -39 190 -121 6 -41 5 -42 -18
-36 -170 46 -349 29 -454 -43 -122 -84 -140 -300 -34 -415 61 -66 124 -90 239
-90 105 1 158 18 231 76 l39 31 0 -46 0 -46 161 0 160 0 -3 328 c-4 375 -8
397 -86 484 -53 58 -120 94 -211 114 -81 17 -232 17 -328 -1z m295 -539 c19
-12 14 -97 -8 -133 -48 -79 -177 -93 -230 -26 -38 49 -16 132 43 159 33 15
171 15 195 0z"/>
<path d="M2560 1340 l0 -50 3175 0 3175 0 0 50 0 50 -3175 0 -3175 0 0 -50z"/>
</g>
</svg>
