<svg id="ba64b2dd-2bf5-4415-b16d-84e4edde708f" data-name="Layer 1" xmlns="http://www.w3.org/2000/svg" width="2.60764in" height="1.27606in" viewBox="0 0 187.75 91.8765">
  <defs>
    <style>
      .bc8a4bde-47d0-4119-971a-be761e7a1142 {
        fill: #231f20;
      }
    </style>
  </defs>
  <g>
    <path class="bc8a4bde-47d0-4119-971a-be761e7a1142" d="M74.69339,51.835l-1.9688-4.8286h-9.1035l-1.9683,4.8286h-4.8281l9.2266-21.6816H70.418L79.64449,51.835Zm-6.5205-15.9922L65.313,42.8238h5.72019Z"/>
    <path class="bc8a4bde-47d0-4119-971a-be761e7a1142" d="M87.11469,52.1114c-2.8603,0-4.7973-1.1372-4.7973-4.9512v-7.811h-1.9683V35.3501h1.9683V31.1372h4.6738v4.2129h3.8755v3.9991h-3.8755v7.0419c0,1.0767.4619,1.5992,1.5073,1.5992a4.76609,4.76609,0,0,0,2.3067-.5835v3.7519A6.89417,6.89417,0,0,1,87.11469,52.1114Z"/>
    <path class="bc8a4bde-47d0-4119-971a-be761e7a1142" d="M94.52539,51.835V29.3843h4.6743V51.835Z"/>
    <path class="bc8a4bde-47d0-4119-971a-be761e7a1142" d="M113.25339,51.835V50.0513a6.33954,6.33954,0,0,1-4.98239,2.0913c-3.106,0-5.65871-1.7842-5.65871-5.0439v-.0611c0-3.5986,2.7373-5.2592,6.6426-5.2592a11.7146,11.7146,0,0,1,4.0293.6762v-.2763c0-1.938-1.19919-3.0137-3.5366-3.0137a12.12153,12.12153,0,0,0-4.5518.8911l-1.1685-3.5674a14.54421,14.54421,0,0,1,6.3965-1.3227c5.105,0,7.3506,2.6455,7.3506,7.1045V51.835Zm.0923-6.6431a7.24831,7.24831,0,0,0-2.9834-.6152c-1.999,0-3.229.7998-3.229,2.2764v.061c0,1.2607,1.0454,1.999,2.55271,1.999,2.18359,0,3.65969-1.1992,3.65969-2.8911Z"/>
    <path class="bc8a4bde-47d0-4119-971a-be761e7a1142" d="M132.22709,51.835V42.6392c0-2.2144-1.0464-3.3521-2.83009-3.3521s-2.92191,1.1377-2.92191,3.3521V51.835h-4.6738V35.3501h4.6738V37.688a5.83329,5.83329,0,0,1,4.8291-2.645c3.5366,0,5.5967,2.3374,5.5967,6.1201V51.835Z"/>
    <path class="bc8a4bde-47d0-4119-971a-be761e7a1142" d="M146.52589,52.1114c-2.8604,0-4.7974-1.1372-4.7974-4.9512v-7.811h-1.9682V35.3501h1.9682V31.1372h4.6743v4.2129h3.875v3.9991h-3.875v7.0419c0,1.0767.4615,1.5992,1.5074,1.5992a4.76711,4.76711,0,0,0,2.3066-.5835v3.7519A6.89717,6.89717,0,0,1,146.52589,52.1114Z"/>
    <path class="bc8a4bde-47d0-4119-971a-be761e7a1142" d="M153.813,33.5362V29.3843h4.92039v4.1519Zm.123,18.2988V35.3501h4.67439V51.835Z"/>
    <path class="bc8a4bde-47d0-4119-971a-be761e7a1142" d="M170.78809,52.2041a8.41659,8.41659,0,0,1-8.58009-8.519v-.0615a8.46267,8.46267,0,0,1,8.64109-8.5806,8.10463,8.10463,0,0,1,6.5821,2.7681l-2.8609,3.0752a4.81459,4.81459,0,0,0-3.7519-1.8145,4.21177,4.21177,0,0,0-3.9976,4.4902v.0616c0,2.5215,1.6299,4.5512,4.1821,4.5512a5.21816,5.21816,0,0,0,3.7827-1.7529l2.7373,2.7686A8.30194,8.30194,0,0,1,170.78809,52.2041Z"/>
    <path class="bc8a4bde-47d0-4119-971a-be761e7a1142" d="M68.75679,80.3931a10.8667,10.8667,0,0,1-11.0405-11.0713v-.062A10.94139,10.94139,0,0,1,68.94139,58.127a11.10471,11.10471,0,0,1,8.4883,3.3218L74.416,64.9234a7.946,7.946,0,0,0-5.50491-2.4292c-3.6289,0-6.2436,3.0136-6.2436,6.7041v.0615c0,3.6904,2.5527,6.7661,6.2436,6.7661,2.4605,0,3.9668-.9839,5.6587-2.522l3.0137,3.0445A11.00412,11.00412,0,0,1,68.75679,80.3931Z"/>
    <path class="bc8a4bde-47d0-4119-971a-be761e7a1142" d="M88.65329,80.3931a8.56788,8.56788,0,0,1-8.8882-8.5186v-.062a8.92674,8.92674,0,0,1,17.8374-.0615v.0615A8.6522,8.6522,0,0,1,88.65329,80.3931Zm4.336-8.5806a4.37965,4.37965,0,0,0-4.336-4.5517,4.22351,4.22351,0,0,0-4.2754,4.4902v.0615a4.37965,4.37965,0,0,0,4.3365,4.5513,4.22266,4.22266,0,0,0,4.2749-4.4893Z"/>
    <path class="bc8a4bde-47d0-4119-971a-be761e7a1142" d="M111.28609,80.024V77.6866a5.83329,5.83329,0,0,1-4.82909,2.645c-3.53661,0-5.59661-2.3374-5.59661-6.1206V63.5396h4.6748v9.1958c0,2.2139,1.0454,3.352,2.8291,3.352s2.9218-1.1381,2.9218-3.352V63.5396h4.6748V80.024Z"/>
    <path class="bc8a4bde-47d0-4119-971a-be761e7a1142" d="M130.56689,80.024V70.8282c0-2.2144-1.04589-3.3521-2.8296-3.3521s-2.9219,1.1377-2.9219,3.3521V80.024h-4.6743V63.5396h4.6743V65.877a5.83225,5.83225,0,0,1,4.82861-2.6445c3.53719,0,5.59719,2.3374,5.59719,6.1196V80.024Z"/>
    <path class="bc8a4bde-47d0-4119-971a-be761e7a1142" d="M147.07959,80.3931a8.41687,8.41687,0,0,1-8.5801-8.5186v-.062a8.46267,8.46267,0,0,1,8.6416-8.58A8.105,8.105,0,0,1,153.72269,66l-2.8604,3.0752a4.81481,4.81481,0,0,0-3.7519-1.8144,4.21232,4.21232,0,0,0-3.9981,4.4902v.0615c0,2.522,1.6299,4.5513,4.1826,4.5513a5.22026,5.22026,0,0,0,3.7827-1.7529l2.7373,2.7685A8.302,8.302,0,0,1,147.07959,80.3931Z"/>
    <path class="bc8a4bde-47d0-4119-971a-be761e7a1142" d="M156.95069,61.7251V57.5733h4.9204v4.1518Zm.123,18.2989V63.5396H161.748V80.024Z"/>
    <path class="bc8a4bde-47d0-4119-971a-be761e7a1142" d="M166.36039,80.024V57.5733h4.6738V80.024Z"/>
  </g>
  <path class="bc8a4bde-47d0-4119-971a-be761e7a1142" d="M29.13379,30.9663v5.7061h2.9404V30.7847h.0059V27.8208h-.0059V22.3521h-2.9404v5.1152h.0039v3.499Zm0-10.1093h2.9404v-.002h6.4785c-.1582-.6455-.6416-2.2334-.8652-2.9639h-5.6133v-.0029h-2.9404v.0029h-6.0274c-.22549.7305-.71089,2.3184-.86319,2.9639h6.89059Zm2.9404,17.3144h-2.9404v.0049H22.4756c.1709.6504.707,2.2324.95309,2.9619H28.835v-.0019h3.46189v.0019h5.0654c.2168-.6357.7529-2.2197.958-2.9619h-6.2461Zm17.6279.002-5.1787.0029a10.718,10.718,0,0,1-.8447,2.9619h3.8418a20.99569,20.99569,0,0,1-9.25,7.3028,22.92934,22.92934,0,0,0,3.8467-7.2735c.4082-1.3525.7129-2.5449.8486-3.0859a39.12407,39.12407,0,0,0,.8711-5.7979h-2.9853a35.06757,35.06757,0,0,1-.9073,5.5313l.0118.0029A26.90005,26.90005,0,0,1,38.918,41.1382h.00579c-.0224.0576-.04779.1133-.0683.1758-.0147.0352-.02349.0635-.0381.1016h-.0029c-1.6729,4.2441-4.1241,7.167-6.7403,8.0459V42.6324h-2.9404v6.9443c-2.7637-.6963-5.3486-3.6318-7.11429-8.0557h-.0117c-.0439-.1181-.082-.2265-.1221-.3369-.0048-.0166-.0136-.0332-.0185-.0459h0a29.54864,29.54864,0,0,1-.9356-2.9619h-.0029a34.85864,34.85864,0,0,1-.9922-5.8984H16.9541a38.69553,38.69553,0,0,0,.8516,5.7119c.0937.3906.4101,1.665.8603,3.1611a23.27059,23.27059,0,0,0,3.6895,7.0869,21.00434,21.00434,0,0,1-8.7725-7.0996h3.5029a11.82842,11.82842,0,0,1-.8056-2.9619H11.8115a20.60338,20.60338,0,0,1-2.0244-7.3916h6.8731v-.0019h3.497v.0019h7.48149V27.8208H19.8105V27.816H16.8428v.0048H9.75a20.78781,20.78781,0,0,1,1.6387-6.9658H16.082a14.09216,14.09216,0,0,1,.7451-2.9639H12.9678A20.93332,20.93332,0,0,1,22.375,9.8667a23.662,23.662,0,0,0-3.9219,7.7725c-.4258,1.4082-.7021,2.6553-.8154,3.2158h.0029a40.164,40.164,0,0,0-.7217,5.4639h2.9776a35.03586,35.03586,0,0,1,.7539-5.2178h-.0059a28.75824,28.75824,0,0,1,.8994-3.21h-.0058c.0234-.0644.0469-.125.0703-.1914.0244-.0644.043-.1279.0684-.1914h0c1.76269-4.956,4.47849-8.2255,7.457-8.9697v7.8516h2.9404V8.6558c2.80081.9307,5.3623,4.1523,7.0391,8.8525h.0039a29.38483,29.38483,0,0,1,1.0303,3.5928l-.0059.002a35.62135,35.62135,0,0,1,.7549,5.2158h2.9717a39.08518,39.08518,0,0,0-.7188-5.4639h.0078c-.11419-.5381-.3711-1.709-.7676-3.0488a23.4526,23.4526,0,0,0-4.1347-8.1309,20.83709,20.83709,0,0,1,9.8779,8.2158h-4.164a14.32062,14.32062,0,0,1,.7441,2.9639h4.999a20.57785,20.57785,0,0,1,1.6377,6.9658h-7.4062V27.816h-2.9659v.0048h-7.4121v2.9639H40.958v.0039h2.97269v-.0039h7.3838a25.38273,25.38273,0,0,1-2.0342,7.6856"/>
</svg>
